<svg width="800" height="433" viewBox="0 0 800 433" fill="none" xmlns="http://www.w3.org/2000/svg">
<rect width="800" height="432" transform="translate(0 0.78418)" fill="white" fill-opacity="0.05"/>
<g clip-path="url(#clip0_401_1226)">
<path d="M399.004 108.685C404.919 108.685 409.728 103.893 409.728 97.9775C409.728 92.0619 404.919 87.2705 399.004 87.2705C393.088 87.2705 388.279 92.0619 388.279 97.9775C388.279 103.893 393.088 108.685 399.004 108.685Z" fill="white" fill-opacity="0.25"/>
<path d="M399.004 108.684C397.69 108.684 396.427 108.442 395.251 107.992V146.237H402.758V107.992C401.582 108.425 400.319 108.684 399.004 108.684Z" fill="white" fill-opacity="0.1"/>
<path d="M520.674 225.302C526.589 225.302 531.398 220.51 531.398 214.595C531.398 208.679 526.589 203.888 520.674 203.888C514.758 203.888 509.949 208.679 509.949 214.595C509.949 220.51 514.758 225.302 520.674 225.302Z" fill="white" fill-opacity="0.25"/>
<path d="M509.95 214.596C509.95 213.282 510.21 212.019 510.642 210.843H470.184V218.332H510.642C510.21 217.174 509.95 215.911 509.95 214.579V214.596Z" fill="white" fill-opacity="0.1"/>
<path d="M399.004 346.729C404.919 346.729 409.728 341.938 409.728 336.022C409.728 330.107 404.919 325.315 399.004 325.315C393.088 325.315 388.279 330.107 388.279 336.022C388.279 341.938 393.088 346.729 399.004 346.729Z" fill="white" fill-opacity="0.25"/>
<path d="M399.004 325.316C400.319 325.316 401.582 325.558 402.758 326.008V285.636H395.251V326.008C396.427 325.575 397.69 325.316 399.004 325.316Z" fill="white" fill-opacity="0.1"/>
<path d="M277.336 225.302C283.251 225.302 288.06 220.51 288.06 214.595C288.06 208.679 283.251 203.888 277.336 203.888C271.42 203.888 266.611 208.679 266.611 214.595C266.611 220.51 271.42 225.302 277.336 225.302Z" fill="white" fill-opacity="0.25"/>
<path d="M287.367 210.859C287.8 212.018 288.059 213.281 288.059 214.613C288.059 215.945 287.8 217.19 287.367 218.366H327.808V210.877H287.367V210.859Z" fill="white" fill-opacity="0.1"/>
<path d="M470.183 128.523C476.116 128.523 480.908 123.732 480.908 117.816C480.908 111.901 476.099 107.109 470.183 107.109C464.268 107.109 459.459 111.901 459.459 117.816C459.459 123.732 464.268 128.523 470.183 128.523Z" fill="white" fill-opacity="0.25"/>
<path d="M459.459 117.817C459.459 116.243 459.805 114.755 460.41 113.406H444.531C435.606 113.406 428.341 120.654 428.341 129.562V156.944H435.848V129.562C435.848 124.788 439.74 120.896 444.531 120.896H459.908C459.614 119.927 459.459 118.889 459.459 117.817Z" fill="white" fill-opacity="0.1"/>
<path d="M518.459 142.846C524.374 142.846 529.183 138.054 529.183 132.139C529.183 126.223 524.374 121.432 518.459 121.432C512.543 121.432 507.734 126.223 507.734 132.139C507.734 138.054 512.543 142.846 518.459 142.846Z" fill="white" fill-opacity="0.25"/>
<path d="M518.46 142.846C517.145 142.846 515.883 142.604 514.706 142.154V165.54C514.706 172.009 509.431 177.285 502.944 177.285H457.4V184.775H502.944C513.565 184.775 522.213 176.143 522.213 165.54V142.154C521.037 142.587 519.774 142.846 518.46 142.846Z" fill="white" fill-opacity="0.1"/>
<path d="M327.825 128.523C333.741 128.523 338.549 123.732 338.549 117.816C338.549 111.901 333.741 107.109 327.825 107.109C321.909 107.109 317.101 111.901 317.101 117.816C317.101 123.732 321.909 128.523 327.825 128.523Z" fill="white" fill-opacity="0.25"/>
<path d="M353.461 113.423H337.582C338.187 114.772 338.533 116.26 338.533 117.834C338.533 118.906 338.378 119.944 338.084 120.913H353.461C358.252 120.913 362.144 124.804 362.144 129.579V156.96H369.651V129.579C369.651 120.67 362.386 113.423 353.461 113.423Z" fill="white" fill-opacity="0.1"/>
<path d="M279.549 142.846C285.464 142.846 290.273 138.054 290.273 132.139C290.273 126.223 285.464 121.432 279.549 121.432C273.633 121.432 268.824 126.223 268.824 132.139C268.824 138.054 273.633 142.846 279.549 142.846Z" fill="white" fill-opacity="0.25"/>
<path d="M295.065 177.285C288.579 177.285 283.303 172.027 283.303 165.54V142.154C282.127 142.587 280.864 142.846 279.549 142.846C278.235 142.846 276.972 142.604 275.796 142.154V165.54C275.796 176.143 284.445 184.775 295.065 184.775H340.609V177.285H295.065Z" fill="white" fill-opacity="0.1"/>
<path d="M327.948 321.839C333.864 321.839 338.672 317.047 338.672 311.132C338.672 305.216 333.864 300.425 327.948 300.425C322.032 300.425 317.224 305.216 317.224 311.132C317.224 317.047 322.032 321.839 327.948 321.839Z" fill="white" fill-opacity="0.25"/>
<path d="M362.265 276.364V299.404C362.265 304.178 358.373 308.07 353.582 308.07H338.204C338.499 309.039 338.654 310.077 338.654 311.149C338.654 312.723 338.308 314.211 337.686 315.56H353.564C362.49 315.56 369.755 308.312 369.755 299.404V276.364H362.248H362.265Z" fill="white" fill-opacity="0.1"/>
<path d="M279.671 307.517C285.586 307.517 290.395 302.725 290.395 296.81C290.395 290.894 285.586 286.103 279.671 286.103C273.755 286.103 268.946 290.894 268.946 296.81C268.946 302.725 273.755 307.517 279.671 307.517Z" fill="white" fill-opacity="0.25"/>
<path d="M295.186 244.191C284.566 244.191 275.917 252.823 275.917 263.426V286.812C277.093 286.38 278.356 286.12 279.671 286.12C280.985 286.12 282.248 286.362 283.424 286.812V263.426C283.424 256.957 288.7 251.681 295.186 251.681H336.371V244.191H295.186Z" fill="white" fill-opacity="0.1"/>
<path d="M469.387 321.839C475.303 321.839 480.112 317.047 480.112 311.132C480.112 305.216 475.303 300.425 469.387 300.425C463.472 300.425 458.663 305.216 458.663 311.132C458.663 317.047 463.472 321.839 469.387 321.839Z" fill="white" fill-opacity="0.25"/>
<path d="M458.662 311.133C458.662 310.06 458.817 309.022 459.112 308.054H443.734C438.943 308.054 435.051 304.162 435.051 299.388V276.348H427.544V299.388C427.544 308.296 434.809 315.543 443.734 315.543H459.613C459.008 314.194 458.662 312.707 458.662 311.133Z" fill="white" fill-opacity="0.1"/>
<path d="M517.665 307.517C523.58 307.517 528.389 302.725 528.389 296.81C528.389 290.894 523.58 286.103 517.665 286.103C511.749 286.103 506.94 290.894 506.94 296.81C506.94 302.725 511.749 307.517 517.665 307.517Z" fill="white" fill-opacity="0.25"/>
<path d="M513.91 263.426V286.812C515.086 286.38 516.349 286.12 517.663 286.12C518.978 286.12 520.241 286.362 521.417 286.812V263.426C521.417 252.823 512.768 244.191 502.148 244.191H460.963V251.681H502.148C508.634 251.681 513.91 256.94 513.91 263.426Z" fill="white" fill-opacity="0.1"/>
<rect x="327.151" y="144.353" width="145.297" height="145.297" rx="72.6486" fill="#1463FF"/>
<g clip-path="url(#clip1_401_1226)">
<path d="M386.796 230.199L413.452 244.61C414.474 245.163 415.739 244.57 415.97 243.432L426.427 191.765C426.759 190.125 424.802 189.016 423.566 190.144L384.124 226.129C383.246 226.93 383.419 228.357 384.461 228.926L386.796 230.199Z" fill="white"/>
<path d="M361.529 213.455C360.211 214.035 360.138 215.878 361.406 216.561L378.118 225.566C378.76 225.912 379.549 225.819 380.092 225.333L416.113 193.124C417.581 191.812 416.066 189.459 414.264 190.252L361.529 213.455Z" fill="white"/>
<path d="M381.926 244.995C381.926 246.521 383.759 247.3 384.857 246.239L391.985 239.357C392.829 238.542 392.634 237.14 391.599 236.587L384.471 232.777C383.319 232.161 381.926 232.996 381.926 234.303V244.995Z" fill="white"/>
</g>
<path d="M433.529 210.081C443.56 210.081 451.692 201.95 451.692 191.919C451.692 181.888 443.56 173.757 433.529 173.757C423.499 173.757 415.367 181.888 415.367 191.919C415.367 201.95 423.499 210.081 433.529 210.081Z" fill="#D61549"/>
<path d="M433.431 195.577H427.841C427.641 195.577 427.463 195.703 427.397 195.892L426.307 199.016C426.242 199.204 426.064 199.33 425.863 199.33H423.959C423.63 199.33 423.403 199.003 423.519 198.696L429.266 183.513C429.335 183.331 429.51 183.21 429.706 183.21H431.575C431.77 183.21 431.945 183.331 432.015 183.513L437.772 198.696C437.887 199.002 437.661 199.33 437.332 199.33H435.415C435.216 199.33 435.038 199.205 434.973 199.017L433.873 195.891C433.807 195.703 433.63 195.577 433.43 195.577H433.431ZM428.956 193.319H432.315C432.639 193.319 432.865 193 432.758 192.696L431.079 187.898C430.932 187.479 430.339 187.479 430.192 187.898L428.512 192.696C428.406 193.001 428.632 193.319 428.955 193.319H428.956Z" fill="white"/>
<path d="M442.337 199.328H440.48C440.221 199.328 440.011 199.119 440.011 198.86V183.677C440.011 183.418 440.221 183.208 440.48 183.208H442.337C442.596 183.208 442.807 183.418 442.807 183.677V198.86C442.807 199.119 442.596 199.328 442.337 199.328Z" fill="white"/>
</g>
<defs>
<clipPath id="clip0_401_1226">
<rect width="264.787" height="259.459" fill="white" transform="translate(266.611 87.2705)"/>
</clipPath>
<clipPath id="clip1_401_1226">
<rect x="358.287" y="185.866" width="69.1892" height="63.2036" rx="5.18919" fill="white"/>
</clipPath>
</defs>
</svg>
